<svg xmlns="http://www.w3.org/2000/svg" xmlns:xlink="http://www.w3.org/1999/xlink" width="31" height="29" viewBox="0 0 31 29"><defs><clipPath id="a"><rect width="31" height="29" fill="none"/></clipPath></defs><g clip-path="url(#a)"><path d="M14.995.65C7.072.65.65,5.786.65,12.122c0,4.124,2.721,7.738,6.8,9.76-.3,1.133-1.086,4.105-1.244,4.741-.194.789.286.779.6.566.247-.166,3.931-2.7,5.52-3.793a17.961,17.961,0,0,0,2.663.2c7.922,0,14.345-5.137,14.345-11.472S22.917.65,14.995.65" transform="translate(0.505 0.519)" fill="none" stroke="#222" stroke-miterlimit="10" stroke-width="1.5"/><path d="M54.86,108.306H50.666a.722.722,0,0,0,0,1.444h1.364v5.083a.712.712,0,0,0,.205.5.691.691,0,0,0,.491.206h.152a.692.692,0,0,0,.49-.206.712.712,0,0,0,.205-.5v-5.083H54.86a.722.722,0,0,0,0-1.444" transform="translate(-45.133 -99.044)" fill="#222"/><path d="M208.084,112.928h-1.95v-5.192a.774.774,0,1,0-1.548,0v5.6a.769.769,0,0,0,.012.125.672.672,0,0,0-.012.125.651.651,0,0,0,.647.656h2.851a.655.655,0,0,0,0-1.31" transform="translate(-188.276 -97.793)" fill="#222"/><path d="M271.355,113.166l-2.174-2.888,1.964-1.988a.7.7,0,0,0,0-.974.677.677,0,0,0-.964,0l-2.431,2.46v-2.039a.774.774,0,1,0-1.548,0V113.5a.774.774,0,1,0,1.548,0v-1.78l.442-.447,2.056,2.73a.686.686,0,0,0,.969.139.706.706,0,0,0,.138-.981" transform="translate(-245.313 -97.793)" fill="#222"/><path d="M119.2,113.354l-2.091-5.785-.007-.006a1.027,1.027,0,0,0-.98-.609,1,1,0,0,0-1.016.728.968.968,0,0,0-.04.1l-2.056,5.578a.7.7,0,0,0,.424.894.692.692,0,0,0,.885-.429l.356-1.027h2.861l.356,1.027a.692.692,0,0,0,.884.429.7.7,0,0,0,.424-.894m-4.071-1.873.961-2.775c.011,0,.02,0,.031,0l.961,2.772Z" transform="translate(-103.472 -97.793)" fill="#222"/></g></svg>