<svg xmlns="http://www.w3.org/2000/svg" xmlns:xlink="http://www.w3.org/1999/xlink" width="28" height="27" viewBox="0 0 28 27"><defs><clipPath id="a"><rect width="28" height="27" fill="none"/></clipPath></defs><g clip-path="url(#a)"><ellipse cx="6.503" cy="6.415" rx="6.503" ry="6.415" transform="translate(5.957 1.221)" fill="none" stroke="#222" stroke-linecap="round" stroke-linejoin="round" stroke-width="1.5"/><path d="M.65,51.9A10.165,10.165,0,0,1,10.836,42.65a10.325,10.325,0,0,1,3.329.547,10.117,10.117,0,0,1,6.841,8.53" transform="translate(1.625 -28.599)" fill="none" stroke="#222" stroke-linecap="round" stroke-linejoin="round" stroke-width="1.5"/><path d="M43.776,45.081a5,5,0,0,1,7.007,0,4.84,4.84,0,0,1,0,6.912,5,5,0,0,1-7.007,0,4.84,4.84,0,0,1,0-6.912" transform="translate(-27.143 -29.294)" fill="#fff"/><ellipse cx="4.955" cy="4.887" rx="4.955" ry="4.887" transform="translate(15.182 14.356)" fill="none" stroke="#222" stroke-linecap="round" stroke-linejoin="round" stroke-width="1.5"/><line x2="3.013" y2="2.972" transform="translate(23.749 22.807)" fill="#fff"/><line x2="3.013" y2="2.972" transform="translate(23.749 22.807)" fill="none" stroke="#222" stroke-linecap="round" stroke-linejoin="round" stroke-width="1.5"/></g></svg>