<svg xmlns="http://www.w3.org/2000/svg" xmlns:xlink="http://www.w3.org/1999/xlink" width="27" height="27" viewBox="0 0 27 27"><defs><clipPath id="a"><rect width="27" height="27" fill="none"/></clipPath></defs><g clip-path="url(#a)"><path d="M19.537,50.65c3.434.573,5.714,1.582,5.714,2.731,0,1.786-5.507,3.233-12.3,3.233S.65,55.166.65,53.381c0-1.1,2.1-2.078,5.316-2.661" transform="translate(0.55 -30.813)" fill="none" stroke="#222" stroke-linecap="round" stroke-linejoin="round" stroke-width="1.5"/><path d="M34.15,55.548c.049.032.044.018,0-.032C34.105,55.566,34.1,55.58,34.15,55.548Z" transform="translate(-20.441 -33.866)" fill="none" stroke="#333" stroke-linecap="round" stroke-linejoin="round" stroke-width="1.3"/><path d="M21.273.65a7.764,7.764,0,0,0-7.688,7.839,10.1,10.1,0,0,0,.616,3.481c1.14,3.679,7.071,9.132,7.071,9.132s5.925-5.449,7.066-9.114a10.121,10.121,0,0,0,.622-3.5A7.764,7.764,0,0,0,21.273.65Zm0,11.277a3.844,3.844,0,1,1,3.844-3.844A3.844,3.844,0,0,1,21.273,11.927Z" transform="translate(-7.564 0.55)" fill="none" stroke="#222" stroke-linecap="round" stroke-linejoin="round" stroke-width="1.5"/></g></svg>