<svg xmlns="http://www.w3.org/2000/svg" xmlns:xlink="http://www.w3.org/1999/xlink" width="28" height="26" viewBox="0 0 28 26"><defs><clipPath id="a"><rect width="28" height="26" fill="none"/></clipPath></defs><g transform="translate(1 1)"><g transform="translate(-1 -1)" clip-path="url(#a)"><path d="M62.92,25.976c.114-.01.225-.029.343-.029a2.87,2.87,0,0,1,3.088,2.584v2.355a2.87,2.87,0,0,1-3.088,2.584c-.118,0-.343-.029-.343-.029" transform="translate(-39.657 -15.675)" fill="none" stroke="#222" stroke-linecap="round" stroke-linejoin="round" stroke-width="1.5"/><path d="M4.081,25.976c-.114-.01-.225-.029-.343-.029A2.87,2.87,0,0,0,.65,28.531v2.355a2.87,2.87,0,0,0,3.088,2.584c.118,0,.229-.019.343-.029l.528-.075" transform="translate(0.656 -15.675)" fill="none" stroke="#222" stroke-linecap="round" stroke-linejoin="round" stroke-width="1.5"/><path d="M34.181,58.643a1.719,1.719,0,0,1-1.715,1.723h-4.8a1.723,1.723,0,0,1,0-3.446h4.8A1.719,1.719,0,0,1,34.181,58.643Z" transform="translate(-15.721 -35.678)" fill="none" stroke="#222" stroke-linecap="round" stroke-linejoin="round" stroke-width="1.5"/><path d="M16.269,21.2a6.884,6.884,0,0,1-5.889-6.823V7.542A6.877,6.877,0,0,1,17.242.65h4.8a6.877,6.877,0,0,1,6.862,6.892v9.592" transform="translate(-5.643 0.662)" fill="none" stroke="#222" stroke-linecap="round" stroke-linejoin="round" stroke-width="1.5"/></g></g></svg>